<svg width="259" height="90" viewBox="0 0 259 90" fill="none" xmlns="http://www.w3.org/2000/svg">
<path d="M78.1651 13.112H41.9824C38.3217 13.112 35.0483 15.408 33.7943 18.8474L19.7785 57.3538C18.5245 60.7839 15.2511 63.0707 11.5996 63.0707H47.7731C51.4338 63.0707 54.7072 60.7747 55.9613 57.3353L69.977 18.8197C71.2402 15.3896 74.5044 13.1028 78.1559 13.1028L78.1651 13.112Z" fill="#F0FAFA"/>
<path d="M31.2403 17.9162C32.8817 13.4164 37.197 10.3919 41.9919 10.3919H45.6065L47.6904 4.66576C48.7139 1.86262 51.388 0 54.3755 0H24.8134C21.8166 0 19.1518 1.87184 18.1282 4.68421L6.68514 36.1274C5.66162 38.9305 2.98756 40.7932 0 40.7932H22.9139L31.2403 17.9162Z" fill="#F0FAFA"/>
<path d="M93.7947 22.628H92.3654V14.5874H87.4507V22.628H86.0215V13.3057H93.8039V22.628H93.7947Z" fill="#F0FAFA"/>
<path d="M101.494 13.527C101.927 13.6929 102.305 13.905 102.609 14.1909C102.932 14.4675 103.162 14.7994 103.347 15.2052C103.531 15.6109 103.614 16.035 103.614 16.5238C103.614 17.0401 103.513 17.5012 103.338 17.8884C103.144 18.3034 102.877 18.6446 102.545 18.9212C102.213 19.2162 101.825 19.4191 101.364 19.5759C100.922 19.7326 100.442 19.7972 99.9352 19.7972H97.5562V22.6188H96.127V13.3057H100.092C100.608 13.3057 101.079 13.3887 101.512 13.527H101.494ZM99.8891 18.58C100.599 18.58 101.152 18.3956 101.576 18.036C101.982 17.6856 102.185 17.1877 102.185 16.5422C102.185 15.8967 101.991 15.4172 101.613 15.0484C101.235 14.698 100.691 14.5228 99.9813 14.5228H97.5285V18.5708H99.8799L99.8891 18.58Z" fill="#F0FAFA"/>
<path d="M106.889 20.5164L112.246 13.3057H113.528V22.628H112.136V15.6017L106.907 22.628H105.506V13.3057H106.898V20.5164H106.889Z" fill="#F0FAFA"/>
<path d="M127.791 22.628H126.362V14.5874H121.447V22.628H120.018V13.3057H127.8V22.628H127.791Z" fill="#F0FAFA"/>
<path d="M136.58 13.4716C137.18 13.7206 137.696 14.071 138.129 14.5044C138.563 14.9377 138.876 15.4541 139.134 16.0442C139.356 16.6436 139.485 17.2798 139.485 17.9622C139.485 18.6445 139.356 19.2531 139.134 19.8432C138.885 20.4426 138.554 20.959 138.129 21.4016C137.687 21.835 137.18 22.1761 136.571 22.4343C135.99 22.7017 135.317 22.8216 134.579 22.8216C133.842 22.8216 133.178 22.6925 132.588 22.4435C131.979 22.1946 131.472 21.8442 131.029 21.4016C130.614 20.9682 130.273 20.4518 130.024 19.8709C129.803 19.2715 129.674 18.6445 129.674 17.9622C129.674 17.2798 129.803 16.6528 130.033 16.0535C130.273 15.4725 130.605 14.9562 131.048 14.5228C131.463 14.0894 131.997 13.739 132.578 13.4901C133.187 13.2227 133.842 13.1028 134.57 13.1028C135.299 13.1028 135.972 13.2319 136.571 13.4624L136.58 13.4716ZM133.113 14.6242C132.671 14.8086 132.302 15.0668 132.016 15.3896C131.721 15.7123 131.49 16.0996 131.334 16.5329C131.177 16.9756 131.094 17.455 131.094 17.9622C131.094 18.4693 131.177 18.9488 131.334 19.3914C131.5 19.8248 131.739 20.2121 132.025 20.5348C132.32 20.8575 132.689 21.1157 133.113 21.3001C133.556 21.4846 134.035 21.5768 134.57 21.5768C135.105 21.5768 135.612 21.4753 136.036 21.3094C136.479 21.1157 136.838 20.8668 137.152 20.544C137.447 20.2213 137.678 19.834 137.834 19.3914C137.991 18.958 138.074 18.4693 138.074 17.9622C138.074 17.455 137.991 16.9479 137.825 16.4961C137.668 16.0627 137.438 15.6938 137.143 15.3527C136.848 15.0484 136.479 14.7994 136.045 14.5966C135.612 14.4306 135.123 14.3292 134.579 14.3292C134.035 14.3292 133.537 14.4306 133.122 14.6058L133.113 14.6242Z" fill="#F0FAFA"/>
<path d="M149.69 21.3926H151.055V22.0196L150.917 24.6475H149.736L149.635 22.6282H142.175L142.046 24.6475H140.848L140.746 22.0288V21.4018H141.124C141.345 21.4018 141.585 21.2911 141.834 21.0698C142.083 20.8578 142.295 20.5258 142.443 20.0924C142.572 19.742 142.664 19.3455 142.765 18.8937C142.867 18.4511 142.931 17.9716 143.005 17.4737C143.061 16.9758 143.107 16.4594 143.134 15.9154C143.162 15.3898 143.171 14.8457 143.171 14.3017V13.2966H149.681V21.3833L149.69 21.3926ZM144.204 18.8015C143.992 20.0002 143.678 20.8577 143.273 21.3926H148.28V14.5322H144.554C144.545 16.192 144.425 17.612 144.204 18.8015Z" fill="#F0FAFA"/>
<path d="M161.319 21.3926H162.684V22.0196L162.546 24.6475H161.365L161.264 22.6282H153.804L153.675 24.6475H152.476L152.375 22.0288V21.4018H152.753C152.974 21.4018 153.214 21.2911 153.463 21.0698C153.712 20.8578 153.924 20.5258 154.072 20.0924C154.201 19.742 154.293 19.3455 154.394 18.8937C154.496 18.4511 154.56 17.9716 154.634 17.4737C154.689 16.9758 154.726 16.4594 154.763 15.9154C154.791 15.3898 154.8 14.8457 154.8 14.3017V13.2966H161.31V21.3833L161.319 21.3926ZM155.833 18.8015C155.621 20.0002 155.307 20.8577 154.902 21.3926H159.908V14.5322H156.183C156.174 16.192 156.054 17.612 155.833 18.8015Z" fill="#F0FAFA"/>
<path d="M171.213 14.5413H165.902V17.1692H170.577V18.3956H165.902V21.3739H171.472V22.628H164.51V13.3057H171.213V14.5413Z" fill="#F0FAFA"/>
<path d="M178.812 13.527C179.245 13.6929 179.623 13.905 179.928 14.1909C180.25 14.4675 180.481 14.7994 180.665 15.2052C180.85 15.6109 180.933 16.035 180.933 16.5238C180.933 17.0401 180.831 17.5012 180.656 17.8884C180.462 18.3034 180.195 18.6446 179.863 18.9212C179.531 19.2162 179.144 19.4191 178.683 19.5759C178.24 19.7326 177.761 19.7972 177.254 19.7972H174.875V22.6188H173.445V13.3057H177.41C177.927 13.3057 178.397 13.3887 178.83 13.527H178.812ZM177.207 18.58C177.917 18.58 178.471 18.3956 178.895 18.036C179.301 17.6856 179.503 17.1877 179.503 16.5422C179.503 15.8967 179.31 15.4172 178.932 15.0484C178.554 14.698 178.01 14.5228 177.3 14.5228H174.847V18.5708H177.198L177.207 18.58Z" fill="#F0FAFA"/>
<path d="M186.168 17.0032L187.671 17.0862V13.3057H189.036V17.0862L190.539 17.0032L193.047 13.3057H194.716L191.664 17.5657L195.14 22.628H193.481L190.604 18.2573H189.027V22.628H187.662V18.2573H186.085L183.218 22.628H181.549L185.025 17.5657L181.973 13.3057H183.642L186.15 17.0032H186.168Z" fill="#F0FAFA"/>
<path d="M198.01 17.1323L199.457 17.0217L202.491 13.3057H204.243L200.61 17.621L204.593 22.628H202.786L199.485 18.2849H198.01V22.628H196.617V13.3057H198.01V17.1323Z" fill="#F0FAFA"/>
<path d="M212.965 14.5413H207.654V17.1692H212.329V18.3956H207.654V21.3739H213.223V22.628H206.262V13.3057H212.965V14.5413Z" fill="#F0FAFA"/>
<path d="M94.3106 33.8869H95.4079C96.1455 33.8869 96.8371 33.9791 97.4457 34.2004C98.0727 34.3848 98.6167 34.6983 99.0778 35.0948C99.5204 35.5005 99.88 36.0077 100.12 36.5794C100.359 37.1511 100.489 37.8242 100.489 38.5619C100.489 39.2995 100.359 39.9911 100.083 40.5812C99.8062 41.1529 99.4558 41.6601 98.9671 42.0658C98.5245 42.4715 97.962 42.785 97.3535 42.9971C96.7449 43.2 96.0902 43.3106 95.4079 43.3106H94.3106V44.9243H91.5443V43.3106H90.447C89.7094 43.3106 89.0178 43.2184 88.3908 42.9971C87.7822 42.8127 87.2382 42.4992 86.7956 42.1027C86.353 41.6969 85.9933 41.1898 85.7536 40.6181C85.5139 40.0464 85.3848 39.3733 85.3848 38.6356C85.3848 37.8979 85.5139 37.2064 85.7905 36.6162C86.0671 36.0446 86.4175 35.5374 86.9062 35.1317C87.3488 34.726 87.9113 34.4125 88.5014 34.2004C89.1284 33.9975 89.7647 33.8869 90.447 33.8869H91.5443V32.2363H94.3106V33.8869ZM90.5485 36.2751C89.7647 36.2751 89.1745 36.4779 88.7688 36.9021C88.3631 37.3263 88.1603 37.8887 88.1603 38.608C88.1603 39.3272 88.3631 39.9081 88.8057 40.2954C89.2114 40.6827 89.8108 40.8855 90.5485 40.8855H91.5535V36.2659H90.5485V36.2751ZM95.3157 40.9132C96.0994 40.9132 96.6896 40.7103 97.0953 40.2862C97.501 39.862 97.7039 39.2995 97.7039 38.5803C97.7039 37.8611 97.4826 37.2801 97.0768 36.8929C96.6342 36.5056 96.0533 36.3027 95.3157 36.3027H94.3106V40.9224H95.3157V40.9132Z" fill="#F0FAFA"/>
<path d="M111.655 32.7248C112.476 33.0568 113.177 33.5271 113.73 34.0988C114.32 34.6705 114.772 35.362 115.085 36.1366C115.399 36.9388 115.565 37.7871 115.565 38.7184C115.565 39.6497 115.399 40.4427 115.085 41.2265C114.772 42.0287 114.311 42.7111 113.73 43.3012C113.158 43.8729 112.448 44.3432 111.655 44.6751C110.834 45.0255 109.949 45.1915 108.963 45.1915C107.976 45.1915 107.109 45.0255 106.307 44.712C105.514 44.38 104.804 43.919 104.232 43.3381C103.642 42.7664 103.172 42.0748 102.858 41.2818C102.545 40.4888 102.379 39.6313 102.379 38.7184C102.379 37.8056 102.545 36.9941 102.858 36.1919C103.172 35.3897 103.642 34.7073 104.232 34.1356C104.804 33.5639 105.514 33.0937 106.307 32.7617C107.109 32.4113 107.994 32.2454 108.963 32.2454C109.931 32.2454 110.834 32.4113 111.655 32.7248ZM107.349 35.0393C106.888 35.2421 106.473 35.5372 106.159 35.8968C105.828 36.2472 105.569 36.6714 105.403 37.1601C105.237 37.6396 105.145 38.1652 105.145 38.7184C105.145 39.2717 105.237 39.7973 105.403 40.2952C105.569 40.7747 105.828 41.2081 106.159 41.5584C106.491 41.9088 106.897 42.1855 107.367 42.416C107.828 42.6004 108.372 42.7111 108.963 42.7111C109.553 42.7111 110.115 42.6004 110.576 42.3975C111.056 42.1947 111.471 41.8996 111.803 41.5216C112.116 41.1712 112.356 40.747 112.55 40.2583C112.697 39.7788 112.789 39.2532 112.789 38.7184C112.789 38.1467 112.697 37.6211 112.531 37.1416C112.365 36.6437 112.107 36.2103 111.775 35.8599C111.461 35.5096 111.056 35.2329 110.585 35.0208C110.106 34.818 109.562 34.7258 108.972 34.7258C108.382 34.7258 107.838 34.8364 107.358 35.0393H107.349Z" fill="#F0FAFA"/>
<path d="M120.709 37.3631H126.14V32.5037H128.944V44.9334H126.14V39.9449H120.709V44.9334H117.906V32.5037H120.709V37.3631Z" fill="#F0FAFA"/>
<path d="M143.487 42.4253H145.285V43.1814L145.046 47.5245H142.538L142.427 44.9242H134.027L133.879 47.5245H131.353L131.205 43.1999V42.4438H131.721C131.98 42.4438 132.238 42.3516 132.496 42.1671C132.754 41.9827 132.975 41.6877 133.141 41.2912C133.473 40.5535 133.713 39.5853 133.861 38.4142C134.008 37.2432 134.082 35.9431 134.082 34.523V32.5037H143.469V42.4253H143.487ZM136.516 39.4931C136.313 40.7379 136.018 41.7153 135.659 42.4253H140.703V34.9841H136.848C136.83 36.7453 136.719 38.2483 136.516 39.4931Z" fill="#F0FAFA"/>
<path d="M160.11 44.9243H157.031L156.081 42.4531H150.76L149.829 44.9243H146.805L151.904 32.4761H154.965L160.101 44.9243H160.11ZM155.177 40.0095L153.527 35.2792H153.342L151.673 40.0095H155.177Z" fill="#F0FAFA"/>
<path d="M96.8929 67.1924H94.0898V57.3445H88.8246V67.1924H86.0215V54.7627H96.8929V67.1924Z" fill="#F0FAFA"/>
<path d="M107.349 55.0946C107.957 55.2975 108.483 55.611 108.926 55.9891C109.35 56.3948 109.682 56.8651 109.931 57.3999C110.17 57.9531 110.281 58.5709 110.281 59.2533C110.281 59.9725 110.152 60.6087 109.894 61.1804C109.617 61.7337 109.267 62.2224 108.778 62.5912C108.335 62.9969 107.773 63.292 107.146 63.4856C106.519 63.7069 105.827 63.7992 105.108 63.7992H102.582V67.1924H99.7969V54.7627H105.329C106.067 54.7627 106.74 54.8733 107.349 55.0946ZM105.108 61.328C105.855 61.328 106.427 61.1435 106.851 60.7747C107.275 60.4059 107.478 59.8987 107.478 59.2717C107.478 58.6447 107.293 58.156 106.925 57.8056C106.537 57.4367 105.975 57.2523 105.219 57.2523H102.582V61.3372H105.108V61.328Z" fill="#F0FAFA"/>
<path d="M121.918 57.2616H115.371V59.5944H121.217V62.0287H115.371V64.6844H122.231V67.1924H112.623V54.7627H121.918V57.2708V57.2616Z" fill="#F0FAFA"/>
<path d="M130.834 59.29C131.073 59.0872 131.203 58.7921 131.203 58.414C131.203 57.953 131.037 57.5842 130.723 57.3536C130.391 57.0955 129.847 56.9848 129.109 56.9848C127.938 56.9848 126.869 57.3721 125.845 58.1559L124.398 56.2471C125.08 55.657 125.827 55.2052 126.638 54.9286C127.413 54.6519 128.307 54.5044 129.275 54.5044C130.022 54.5044 130.686 54.5966 131.258 54.7626C131.83 54.9286 132.337 55.1683 132.742 55.491C133.148 55.8045 133.462 56.1734 133.692 56.5883C133.895 57.0309 134.006 57.5012 134.006 58.0176C134.006 58.5339 133.895 59.0411 133.692 59.4468C133.471 59.8894 133.139 60.2213 132.706 60.4703V60.6363C133.296 60.8391 133.766 61.1711 134.098 61.6414C134.43 62.1208 134.596 62.7202 134.596 63.4025C134.596 63.9742 134.485 64.5183 134.245 65.0162C134.024 65.5141 133.692 65.9475 133.24 66.2979C132.779 66.6483 132.217 66.9434 131.534 67.1554C130.871 67.3583 130.087 67.469 129.183 67.469C128.648 67.469 128.123 67.4321 127.643 67.3583C127.164 67.303 126.694 67.1923 126.269 67.0448C125.845 66.8973 125.412 66.7128 125.025 66.4731C124.637 66.2518 124.25 65.9752 123.854 65.6432L125.32 63.6054C125.965 64.1033 126.601 64.4814 127.228 64.6842C127.874 64.8871 128.584 64.9978 129.358 64.9978C130.179 64.9978 130.788 64.8502 131.193 64.5551C131.581 64.2416 131.783 63.8544 131.783 63.3472C131.783 62.4712 131.23 62.0471 130.096 62.0471H126.961V59.6312H129.801C130.225 59.6312 130.576 59.5205 130.824 59.3177L130.834 59.29Z" fill="#F0FAFA"/>
<path d="M139.613 63.0338L145.625 54.7627H148.078V67.1924H145.312V59.3824L139.595 67.1924H136.865V54.7627H139.613V63.0338Z" fill="#F0FAFA"/>
<path d="M162.62 64.6844H164.418V65.4405L164.178 69.7835H161.67L161.56 67.1832H153.159L153.012 69.7835H150.485L150.338 65.4589V64.7028H150.854C151.112 64.7028 151.371 64.6106 151.629 64.4262C151.887 64.2418 152.108 63.9467 152.274 63.5502C152.606 62.8125 152.846 61.8443 152.994 60.6733C153.141 59.5022 153.215 58.2021 153.215 56.7821V54.7627H162.602V64.6844H162.62ZM155.649 61.7521C155.446 62.9969 155.151 63.9744 154.792 64.6844H159.835V57.2431H155.981C155.963 59.0043 155.852 60.5073 155.649 61.7521Z" fill="#F0FAFA"/>
<path d="M175.97 57.2616H169.424V59.5944H175.27V62.0287H169.424V64.6844H176.284V67.1924H166.676V54.7627H175.97V57.2708V57.2616Z" fill="#F0FAFA"/>
<path d="M181.541 59.6221H186.973V54.7627H189.776V67.1924H186.973V62.2039H181.541V67.1924H178.738V54.7627H181.541V59.6221Z" fill="#F0FAFA"/>
<path d="M203.284 57.2799H199.033V67.1832H196.266V57.2799H192.016V54.7534H203.274V57.2799H203.284Z" fill="#F0FAFA"/>
<path d="M213.02 57.3536C212.466 57.1323 211.83 57.0401 211.148 57.0401C210.539 57.0401 209.995 57.1323 209.497 57.3168C209.018 57.5196 208.603 57.7778 208.252 58.1374C207.902 58.5063 207.644 58.9212 207.459 59.4007C207.275 59.8802 207.183 60.4058 207.183 60.9775C207.183 61.5491 207.275 62.1116 207.459 62.5911C207.662 63.0706 207.921 63.4855 208.28 63.8175C208.631 64.1679 209.036 64.4261 209.525 64.6381C210.004 64.8226 210.548 64.9148 211.12 64.9148C211.821 64.9148 212.476 64.7857 213.103 64.5644C213.693 64.3062 214.255 63.9742 214.735 63.504L216.311 65.4496C214.901 66.7866 213.121 67.4505 210.973 67.4505C210.004 67.4505 209.119 67.303 208.317 67.0079C207.515 66.6944 206.832 66.261 206.242 65.7078C205.689 65.1361 205.219 64.4629 204.905 63.6699C204.592 62.8677 204.426 62.001 204.426 61.0143C204.426 60.1199 204.573 59.29 204.905 58.4878C205.2 57.6856 205.661 57.0033 206.261 56.4131C206.851 55.823 207.579 55.3527 208.409 55.0208C209.248 54.6704 210.207 54.5044 211.268 54.5044C212.236 54.5044 213.121 54.6519 213.923 54.947C214.726 55.2236 215.445 55.6478 216.072 56.2103L214.532 58.2296C214.108 57.8424 213.601 57.5473 213.029 57.3536H213.02Z" fill="#F0FAFA"/>
<path d="M221.31 59.493L222.666 59.3455L226.17 54.7627H229.6L224.98 60.5718L230.042 67.1924H226.465L222.684 61.8904H221.31V67.1924H218.562V54.7627H221.31V59.493Z" fill="#F0FAFA"/>
<path d="M234.783 63.0338L240.795 54.7627H243.248V67.1924H240.481V59.3824L234.765 67.1924H232.035V54.7627H234.783V63.0338Z" fill="#F0FAFA"/>
<path d="M251.535 59.1979H251.72L254.191 54.7627H257.621L253.656 60.8854L258.018 67.1924H254.422L251.637 62.4068H251.452L248.705 67.1924H245.127L249.488 60.7378L245.514 54.7627H248.981L251.545 59.1979H251.535Z" fill="#F0FAFA"/>
<path d="M95.4268 79.5485H88.8062V89.4517H86.0215V77.022H95.4268V79.5485Z" fill="#F0FAFA"/>
<path d="M105.109 77.3539C105.717 77.5568 106.243 77.8703 106.685 78.2484C107.109 78.6541 107.441 79.1243 107.69 79.6591C107.93 80.2124 108.041 80.8302 108.041 81.5125C108.041 82.2318 107.912 82.868 107.654 83.4397C107.377 83.993 107.026 84.4817 106.538 84.8505C106.095 85.2562 105.533 85.5513 104.906 85.7449C104.279 85.9662 103.587 86.0584 102.868 86.0584H100.341V89.4517H97.5566V77.022H103.089C103.827 77.022 104.5 77.1326 105.109 77.3539ZM102.868 83.5872C103.606 83.5872 104.186 83.4028 104.611 83.034C105.035 82.6651 105.238 82.158 105.238 81.531C105.238 80.904 105.053 80.4153 104.684 80.0649C104.297 79.696 103.735 79.5116 102.979 79.5116H100.341V83.5965H102.868V83.5872Z" fill="#F0FAFA"/>
<path d="M122.194 89.4518H119.115L118.165 86.9807H112.844L111.913 89.4518H108.889L113.988 77.0037H117.049L122.185 89.4518H122.194ZM117.261 84.5371L115.611 79.8068H115.426L113.757 84.5371H117.261Z" fill="#F0FAFA"/>
<path d="M127.147 81.8814H132.578V77.022H135.381V89.4517H132.578V84.4632H127.147V89.4517H124.344V77.022H127.147V81.8814Z" fill="#F0FAFA"/>
<path d="M148.889 79.5485H144.638V89.4517H141.872V79.5485H137.621V77.022H148.88V79.5485H148.889Z" fill="#F0FAFA"/>
<path d="M159.298 77.2432C160.118 77.5751 160.819 78.0454 161.372 78.6171C161.963 79.1888 162.414 79.8803 162.728 80.6549C163.041 81.4571 163.207 82.3054 163.207 83.2367C163.207 84.168 163.041 84.961 162.728 85.7448C162.414 86.547 161.944 87.2294 161.372 87.8195C160.801 88.3912 160.091 88.8615 159.298 89.1934C158.477 89.5438 157.592 89.7098 156.605 89.7098C155.619 89.7098 154.752 89.5438 153.95 89.2303C153.147 88.8983 152.447 88.4373 151.875 87.8564C151.285 87.2847 150.814 86.5931 150.501 85.8001C150.187 84.9979 150.021 84.1496 150.021 83.2367C150.021 82.3239 150.187 81.5124 150.501 80.7102C150.814 79.908 151.285 79.2256 151.875 78.6539C152.447 78.0823 153.157 77.612 153.95 77.28C154.752 76.9296 155.637 76.7637 156.605 76.7637C157.573 76.7637 158.477 76.9296 159.298 77.2432ZM154.992 79.5576C154.53 79.7605 154.116 80.0555 153.802 80.4151C153.47 80.7655 153.212 81.1897 153.046 81.6784C152.88 82.1579 152.788 82.6835 152.788 83.2367C152.788 83.79 152.88 84.3156 153.046 84.8135C153.212 85.293 153.47 85.7264 153.802 86.0768C154.134 86.4272 154.54 86.7038 155.01 86.9343C155.471 87.1187 156.015 87.2294 156.605 87.2294C157.195 87.2294 157.758 87.1187 158.219 86.9159C158.698 86.713 159.113 86.4179 159.445 86.0399C159.759 85.6895 159.998 85.2653 160.192 84.7766C160.34 84.2971 160.432 83.7715 160.432 83.2367C160.432 82.665 160.34 82.1394 160.174 81.66C160.008 81.162 159.75 80.7286 159.418 80.3783C159.104 80.0279 158.689 79.7512 158.228 79.5392C157.749 79.3363 157.205 79.2441 156.614 79.2441C156.024 79.2441 155.48 79.3547 155.001 79.5576H154.992Z" fill="#F0FAFA"/>
<path d="M174.227 77.935C174.983 78.5435 175.361 79.3642 175.361 80.4246C175.361 80.941 175.251 81.4112 175.048 81.8169C174.826 82.2227 174.531 82.5177 174.153 82.7298V82.8958C174.762 83.0986 175.251 83.449 175.601 83.9746C175.97 84.4726 176.154 85.0719 176.154 85.7543C176.154 86.2522 176.062 86.7409 175.896 87.2019C175.712 87.6445 175.435 88.041 175.039 88.373C174.67 88.7049 174.181 88.9631 173.609 89.1752C173.038 89.3781 172.346 89.4703 171.553 89.4703H165.541V77.0405H171.037C172.429 77.0405 173.489 77.3356 174.227 77.9534V77.935ZM171.147 81.9276C171.608 81.9276 171.986 81.8169 172.263 81.5956C172.521 81.3559 172.65 81.0424 172.65 80.6459C172.65 79.816 172.115 79.4011 171.055 79.4011H168.307V81.9276H171.147ZM171.59 87.0821C172.816 87.0821 173.425 86.6026 173.425 85.6159C173.425 85.1549 173.259 84.7861 172.945 84.5555C172.632 84.2974 172.171 84.1867 171.571 84.1867H168.307V87.0821H171.59Z" fill="#F0FAFA"/>
</svg>
